<?xml version="1.0" standalone="no"?>
<!DOCTYPE svg PUBLIC "-//W3C//DTD SVG 20010904//EN"
 "http://www.w3.org/TR/2001/REC-SVG-20010904/DTD/svg10.dtd">
<svg version="1.0" xmlns="http://www.w3.org/2000/svg"
 width="1920.000000pt" height="1920.000000pt" viewBox="0 0 1920.000000 1920.000000"
 preserveAspectRatio="xMidYMid meet">

<g transform="translate(0.000000,1920.000000) scale(0.100000,-0.100000)"
fill="#000000" stroke="none">
<path d="M3222 12138 c-7 -7 -12 -42 -12 -88 0 -52 -5 -82 -15 -96 -10 -13
-14 -46 -15 -115 0 -68 -4 -101 -15 -115 -8 -10 -15 -40 -15 -65 0 -82 -12
-79 382 -79 407 0 378 -9 378 117 0 52 5 91 15 109 10 19 15 58 15 116 0 48 5
90 10 93 14 9 12 109 -2 123 -9 9 -103 12 -363 12 -260 0 -354 -3 -363 -12z
m656 -57 c11 -6 11 -27 3 -106 -6 -54 -13 -100 -15 -104 -3 -4 -9 -50 -15
-103 -6 -53 -14 -103 -17 -112 -5 -14 -40 -16 -304 -16 -165 0 -301 3 -303 8
-5 8 6 98 28 238 8 49 15 108 15 130 0 43 7 58 30 67 24 9 564 8 578 -2z"/>
<path d="M3112 11232 l-32 -27 0 -101 c0 -78 -3 -104 -15 -114 -12 -10 -15
-36 -15 -115 0 -79 -3 -105 -15 -115 -11 -9 -15 -35 -15 -109 0 -69 -5 -104
-16 -126 -11 -20 -18 -65 -21 -130 -3 -55 -11 -114 -19 -132 -8 -19 -14 -64
-14 -116 0 -56 -5 -95 -15 -113 -10 -19 -15 -58 -15 -115 0 -57 -5 -96 -15
-115 -10 -19 -15 -58 -15 -110 0 -60 -4 -85 -15 -94 -12 -10 -15 -36 -15 -119
0 -95 -2 -107 -20 -119 -18 -11 -20 -23 -20 -116 0 -80 -3 -106 -15 -116 -10
-8 -15 -31 -15 -70 0 -39 -5 -62 -15 -70 -8 -7 -15 -20 -15 -30 0 -10 -7 -23
-15 -30 -8 -7 -15 -18 -15 -24 0 -7 -11 -23 -25 -36 -24 -22 -28 -23 -159 -18
-160 6 -166 4 -166 -84 0 -42 -5 -59 -20 -73 -16 -15 -20 -31 -20 -85 0 -48
-4 -71 -15 -80 -11 -9 -15 -33 -15 -90 0 -58 -4 -81 -16 -90 -23 -20 -14 -79
16 -101 41 -30 284 -45 474 -30 96 8 159 17 173 27 12 8 31 14 41 14 11 0 25
7 32 15 7 8 26 15 41 15 34 0 180 117 246 197 59 70 113 151 113 167 0 7 7 19
15 26 8 7 15 23 15 35 0 12 7 28 15 35 8 7 15 27 15 44 0 21 7 36 21 44 19 12
20 20 15 66 -6 45 -4 55 14 71 17 16 20 30 20 110 0 70 4 96 15 105 12 10 15
36 15 115 0 79 3 105 15 115 12 10 15 37 15 125 0 88 3 115 15 125 11 9 15 35
15 109 0 70 4 103 15 117 10 13 15 47 15 114 0 63 6 103 15 120 9 16 14 55 15
105 0 69 3 82 20 93 18 11 20 23 20 121 0 84 3 111 15 121 12 10 15 37 15 120
0 83 3 110 15 120 11 9 15 35 15 109 0 76 4 102 18 121 22 32 25 178 3 203
-12 15 -49 17 -350 17 l-336 -1 -33 -27z m653 -58 c9 -9 13 -24 10 -32 -3 -8
-10 -50 -15 -91 -6 -42 -16 -121 -24 -176 -8 -55 -22 -154 -31 -220 -9 -66
-23 -163 -31 -215 -8 -52 -14 -107 -14 -122 0 -15 -6 -63 -14 -105 -8 -43 -20
-118 -26 -168 -33 -249 -39 -296 -49 -370 -7 -44 -18 -125 -26 -180 -8 -55
-21 -154 -30 -220 -44 -320 -66 -412 -133 -555 -114 -244 -275 -368 -567 -441
-69 -17 -281 -23 -315 -9 -15 6 -49 14 -76 18 -47 7 -49 8 -52 42 -3 32 16
147 54 322 8 37 14 81 14 98 0 39 29 51 91 39 108 -21 183 -5 238 50 65 65 92
140 117 326 8 61 21 155 29 210 7 55 18 141 25 190 6 50 18 126 26 170 8 44
14 95 14 114 0 19 7 73 15 120 8 47 21 140 30 206 9 66 23 163 30 215 8 52 17
118 20 145 3 28 12 93 20 145 7 52 21 149 30 215 32 234 36 258 46 276 9 18
26 19 294 19 249 0 286 -2 300 -16z"/>
<path d="M2615 11150 c-3 -5 -19 -10 -34 -10 -16 0 -34 -7 -41 -15 -6 -8 -22
-17 -33 -21 -26 -7 -84 -32 -109 -45 -10 -5 -26 -9 -36 -9 -11 0 -27 -9 -37
-20 -10 -11 -28 -20 -40 -20 -13 0 -28 -7 -35 -15 -7 -8 -23 -15 -35 -15 -12
0 -28 -7 -35 -15 -7 -8 -25 -15 -41 -15 -15 0 -31 -4 -34 -10 -3 -5 -14 -10
-24 -10 -10 0 -26 -9 -36 -20 -10 -11 -25 -20 -34 -20 -9 0 -28 -8 -41 -17
-32 -23 -88 -43 -121 -43 -15 0 -32 -7 -39 -15 -7 -8 -18 -15 -25 -15 -6 0
-20 -9 -30 -20 -10 -11 -28 -20 -40 -20 -13 0 -28 -7 -35 -15 -7 -8 -20 -15
-29 -15 -9 0 -25 -7 -35 -15 -11 -8 -30 -15 -41 -15 -12 0 -42 -11 -66 -25
-24 -14 -51 -27 -59 -31 -23 -9 -54 -23 -70 -32 -45 -26 -63 -32 -94 -32 -18
0 -39 -7 -46 -15 -7 -8 -18 -15 -25 -15 -6 0 -20 -9 -30 -20 -10 -11 -28 -20
-40 -20 -13 0 -28 -7 -35 -15 -7 -8 -22 -15 -35 -15 -12 0 -30 -9 -41 -21 -18
-20 -19 -40 -19 -314 l0 -293 24 -26 c14 -15 35 -26 51 -26 14 0 35 -7 46 -15
10 -8 26 -15 35 -15 9 0 24 -9 34 -20 10 -11 28 -20 41 -20 13 0 25 -4 28 -9
9 -14 90 -51 113 -51 11 0 26 -7 33 -15 7 -8 23 -15 35 -15 12 0 28 -7 35 -15
7 -8 20 -15 30 -15 9 0 25 -9 35 -20 10 -11 26 -20 35 -20 10 0 23 -7 30 -16
8 -8 25 -14 39 -13 14 2 36 -2 48 -9 12 -7 28 -12 36 -12 8 0 22 -9 32 -20 10
-11 26 -20 36 -20 10 0 21 -5 24 -10 10 -17 87 -50 116 -50 14 0 32 -7 39 -15
7 -8 23 -15 35 -15 12 0 28 -7 35 -15 7 -8 19 -15 27 -15 8 0 26 -9 40 -20 14
-11 31 -20 38 -20 7 0 18 -7 25 -15 7 -8 21 -15 32 -15 30 0 116 -31 129 -46
6 -8 20 -14 30 -14 10 0 21 -5 24 -10 10 -17 87 -50 116 -50 14 0 32 -7 39
-15 8 -10 31 -15 70 -15 94 0 90 -15 90 357 0 297 -1 321 -18 336 -10 10 -25
17 -34 17 -8 0 -23 9 -33 20 -10 11 -30 20 -45 20 -15 0 -33 7 -40 15 -7 8
-25 15 -40 15 -15 0 -33 7 -40 15 -7 8 -29 15 -50 15 -21 0 -43 7 -50 15 -7 8
-27 15 -45 15 -18 0 -38 7 -45 15 -7 8 -24 15 -37 15 -14 0 -36 9 -50 20 -14
11 -36 20 -49 20 -12 0 -26 5 -29 10 -3 6 -21 10 -38 10 -18 0 -45 7 -61 15
-15 8 -38 15 -50 15 -12 0 -27 9 -34 20 -7 12 -23 20 -40 20 -24 1 -23 2 13
15 22 8 54 15 71 15 17 0 37 7 44 15 7 8 23 15 35 15 12 0 28 7 35 15 7 8 25
15 40 15 15 0 35 9 45 20 10 11 28 20 40 20 13 0 36 7 51 15 16 8 41 15 56 15
15 0 30 5 33 10 3 6 17 10 29 10 13 0 35 9 49 20 14 11 36 20 50 20 13 0 30 7
37 15 7 8 25 15 40 15 15 0 33 7 40 15 7 8 27 15 45 15 24 0 39 7 54 26 20 26
21 38 21 354 0 304 -1 328 -18 343 -20 19 -77 23 -87 7z m33 -335 c2 -143 0
-274 -3 -292 -5 -26 -13 -34 -43 -44 -20 -6 -41 -15 -47 -19 -5 -4 -21 -10
-35 -13 -31 -7 -105 -33 -147 -52 -17 -8 -35 -15 -39 -15 -9 0 -167 -57 -199
-71 -11 -5 -33 -13 -50 -18 -16 -5 -55 -19 -85 -31 -105 -40 -135 -51 -170
-62 -19 -5 -39 -13 -45 -17 -5 -3 -26 -11 -45 -16 -19 -6 -35 -17 -35 -25 0
-13 57 -39 130 -60 36 -10 112 -37 140 -49 11 -5 49 -19 85 -31 36 -12 79 -29
97 -36 17 -8 40 -14 50 -14 10 0 23 -4 29 -9 5 -5 25 -14 44 -19 19 -6 60 -20
90 -32 30 -12 69 -26 85 -30 59 -17 130 -44 160 -60 l30 -17 3 -287 c2 -245 0
-287 -12 -292 -9 -3 -41 6 -73 21 -73 34 -139 64 -178 81 -16 7 -50 22 -75 33
-25 11 -88 38 -140 61 -158 69 -184 81 -217 96 -18 8 -47 21 -65 29 -86 37
-237 103 -273 120 -16 8 -52 23 -80 35 -49 21 -105 46 -136 61 -9 4 -61 26
-115 49 -54 23 -127 56 -161 72 l-63 31 0 247 c0 284 -12 251 110 304 142 63
176 78 210 93 19 9 49 22 65 29 54 23 227 99 270 119 17 8 53 23 80 35 56 23
63 27 155 68 36 17 110 49 164 72 54 23 106 46 115 51 9 4 39 18 66 29 28 12
64 27 80 35 17 8 62 28 100 45 39 16 81 37 95 44 14 8 36 14 50 13 l25 -2 3
-260z"/>
<path d="M3926 11118 c-14 -19 -16 -68 -16 -334 0 -300 1 -312 21 -338 11 -15
31 -26 44 -26 12 0 28 -7 35 -15 7 -8 24 -15 39 -15 14 0 35 -7 45 -15 11 -8
32 -15 46 -15 15 0 35 -9 45 -20 10 -11 28 -20 40 -20 13 0 28 -7 35 -15 8 -9
29 -15 56 -15 23 0 46 -4 49 -10 3 -5 18 -10 33 -10 16 0 32 -8 40 -20 8 -14
23 -20 46 -20 18 0 39 -7 46 -15 7 -8 23 -15 35 -15 12 0 28 -7 35 -15 7 -8
27 -15 45 -15 37 0 114 -29 79 -30 -11 0 -29 -9 -39 -20 -10 -11 -30 -20 -44
-20 -14 0 -35 -7 -45 -15 -11 -8 -34 -15 -52 -15 -18 0 -36 -4 -39 -10 -3 -5
-16 -10 -29 -10 -13 0 -31 -9 -41 -20 -10 -11 -30 -20 -45 -20 -14 0 -35 -7
-46 -15 -10 -8 -31 -15 -45 -15 -15 0 -32 -7 -39 -15 -7 -8 -29 -15 -50 -15
-21 0 -43 -7 -50 -15 -7 -8 -23 -15 -35 -15 -12 0 -28 -7 -35 -15 -7 -8 -25
-15 -40 -15 -15 0 -35 -9 -45 -20 -10 -11 -28 -20 -41 -20 -51 0 -54 -19 -54
-355 0 -366 -3 -355 89 -355 40 0 63 5 71 15 7 8 23 15 36 15 14 0 32 4 42 10
9 5 28 14 42 20 14 5 32 14 40 18 8 5 24 14 35 20 53 30 124 62 138 62 9 0 19
5 22 10 3 6 17 10 29 10 13 0 35 9 49 20 14 11 32 20 40 20 8 0 20 7 27 15 7
8 23 15 35 15 12 0 28 7 35 15 7 8 22 15 34 15 25 0 101 34 111 50 3 5 14 10
23 10 10 0 29 8 42 18 30 21 87 42 116 42 12 0 27 7 34 15 7 8 20 15 30 15 9
0 25 9 35 20 10 11 26 20 35 20 10 0 23 7 30 15 7 8 22 15 34 15 11 0 30 7 40
15 11 8 32 15 47 15 14 0 32 7 39 15 7 8 20 15 30 15 10 0 23 7 30 15 7 8 20
15 30 15 9 0 25 9 35 20 10 11 28 20 40 20 13 0 28 7 35 15 7 8 25 15 39 15
17 0 38 11 54 28 l27 28 0 287 0 286 -33 25 c-19 15 -43 26 -54 26 -11 0 -26
7 -33 15 -7 8 -20 15 -30 15 -9 0 -25 9 -35 20 -10 11 -26 20 -35 20 -10 0
-23 7 -30 15 -7 8 -27 15 -46 15 -18 0 -36 5 -39 10 -3 6 -16 10 -29 10 -13 0
-31 9 -41 20 -10 11 -26 20 -35 20 -10 0 -23 7 -30 15 -7 8 -20 15 -30 15 -10
0 -23 7 -30 15 -7 8 -25 15 -39 15 -15 0 -36 7 -47 15 -10 8 -26 15 -35 15 -9
0 -22 7 -29 15 -7 8 -22 15 -35 15 -12 0 -30 9 -40 20 -10 11 -26 20 -35 20
-10 0 -23 7 -30 15 -7 8 -22 15 -34 15 -29 0 -86 21 -116 43 -13 9 -32 17 -41
17 -9 0 -24 9 -34 20 -10 11 -26 20 -36 20 -10 0 -21 5 -24 10 -3 6 -19 10
-34 10 -16 0 -34 7 -41 15 -7 8 -23 15 -35 15 -12 0 -28 7 -35 15 -7 8 -19 15
-27 15 -8 0 -26 9 -40 20 -14 11 -34 20 -44 20 -10 0 -21 5 -24 10 -3 6 -16
10 -28 10 -12 0 -31 7 -41 15 -11 8 -30 15 -41 15 -12 0 -30 9 -40 20 -27 30
-128 29 -149 -2z m100 -47 c5 -5 38 -21 74 -36 58 -24 126 -55 230 -102 19 -9
49 -22 65 -29 54 -23 227 -99 270 -119 38 -18 99 -44 255 -112 69 -30 143 -63
165 -73 97 -45 175 -80 179 -80 6 0 156 -69 188 -86 14 -8 32 -14 39 -14 7 0
23 -10 36 -22 23 -21 23 -24 23 -259 0 -264 2 -257 -70 -286 -38 -16 -117 -52
-195 -88 -27 -12 -95 -42 -149 -65 -54 -23 -106 -46 -115 -51 -9 -4 -38 -18
-66 -29 -27 -12 -63 -27 -80 -35 -16 -8 -50 -23 -75 -33 -25 -11 -72 -32 -105
-47 -33 -14 -75 -32 -93 -40 -36 -16 -74 -33 -142 -63 -86 -39 -197 -88 -285
-126 -16 -7 -61 -28 -98 -45 -38 -18 -76 -31 -85 -29 -15 3 -17 31 -20 273 -1
149 0 279 2 291 6 21 50 42 171 83 68 23 116 41 195 71 30 12 69 26 85 31 17
5 39 13 50 19 11 5 52 20 90 34 39 13 95 34 125 46 30 12 69 26 85 30 85 24
145 53 145 69 0 4 -35 17 -77 31 -43 13 -82 27 -88 31 -5 4 -26 12 -45 17 -44
14 -119 40 -145 51 -11 5 -29 12 -40 15 -25 6 -103 33 -130 45 -11 5 -67 26
-125 46 -121 43 -172 61 -218 81 -18 8 -39 14 -48 14 -8 0 -19 12 -24 26 -11
27 -14 532 -4 558 7 17 34 21 50 7z"/>
<path d="M7730 10923 c-57 -11 -60 -21 -60 -203 0 -149 2 -169 18 -183 16 -15
47 -17 229 -17 271 0 253 -14 253 201 0 154 0 156 -26 180 -25 23 -30 24 -207
26 -100 0 -193 -1 -207 -4z m348 -85 c15 -15 17 -234 2 -243 -14 -9 -316 -9
-330 0 -15 9 -13 228 2 243 17 17 309 17 326 0z"/>
<path d="M10930 10921 c-53 -9 -60 -33 -60 -206 0 -212 -21 -195 249 -195 277
0 256 -16 256 200 0 174 -3 183 -64 200 -38 11 -322 12 -381 1z m360 -90 c12
-24 13 -210 1 -230 -7 -11 -44 -13 -171 -13 -89 0 -165 4 -169 7 -12 12 -13
212 -2 234 11 20 19 21 171 21 147 0 160 -1 170 -19z"/>
<path d="M12595 10673 c-51 -13 -55 -26 -55 -180 l0 -143 -53 0 c-71 0 -85
-16 -89 -98 l-3 -63 -55 55 c-30 31 -63 56 -72 56 -9 0 -20 5 -23 10 -3 6 -17
10 -29 10 -13 0 -29 7 -36 15 -10 13 -50 15 -241 15 -141 0 -230 -4 -234 -10
-3 -5 -19 -10 -36 -10 -23 0 -47 -17 -117 -87 -122 -121 -142 -165 -142 -310
1 -91 4 -115 23 -153 38 -76 56 -96 130 -152 l72 -53 -110 -3 c-97 -2 -112 -5
-127 -23 -16 -19 -17 1 -20 369 -3 367 -4 391 -22 411 -18 20 -28 21 -237 21
-214 0 -218 0 -233 -22 -14 -20 -16 -97 -16 -634 0 -579 1 -612 18 -627 16
-15 48 -17 239 -17 193 0 222 2 234 17 10 11 15 57 17 160 l4 145 19 -36 c10
-20 19 -41 19 -47 0 -26 201 -219 227 -219 6 0 17 -7 24 -16 9 -11 23 -14 45
-11 18 3 35 3 38 -1 20 -19 93 -32 191 -32 94 0 115 3 144 21 25 15 43 19 71
14 33 -6 45 -1 101 37 35 24 81 61 104 84 89 89 105 111 105 141 0 17 7 36 15
43 11 9 15 34 15 100 0 66 -4 91 -15 100 -8 7 -15 27 -15 44 0 27 -13 46 -77
110 -42 42 -90 85 -107 94 l-31 17 85 3 c83 3 120 17 120 46 0 6 9 17 20 24
11 7 20 23 20 37 0 18 5 25 20 25 20 0 20 -7 20 -288 0 -238 3 -292 15 -308 8
-10 15 -34 15 -52 0 -56 37 -120 113 -193 64 -62 76 -70 103 -66 20 4 38 -1
55 -14 20 -16 42 -19 134 -19 94 0 114 3 135 20 14 11 41 20 61 20 55 0 69 23
69 109 0 58 -4 78 -20 98 -16 20 -20 41 -20 99 0 68 -2 75 -25 90 -19 13 -38
15 -75 11 l-50 -6 0 249 0 250 58 0 c91 0 92 3 92 206 0 119 -4 174 -12 182
-7 7 -39 12 -75 12 l-63 0 0 139 c0 197 15 186 -237 188 -109 1 -207 -1 -218
-4z m373 -218 c1 -82 7 -154 13 -160 5 -5 38 -8 72 -7 34 1 68 -2 76 -7 11 -7
14 -37 14 -126 0 -64 -4 -120 -9 -125 -5 -5 -43 -10 -84 -12 l-75 -3 -3 -280
c-2 -293 1 -325 40 -346 11 -6 45 -9 77 -7 l56 3 7 -134 c5 -74 6 -136 4 -139
-12 -11 -89 -25 -160 -29 -154 -9 -273 49 -330 159 -44 83 -56 193 -55 495 0
145 -3 267 -6 273 -3 5 -33 10 -65 10 -78 0 -83 10 -78 146 3 118 8 125 73
123 81 -3 75 -15 75 145 0 79 3 152 6 160 6 14 28 16 178 14 l171 -3 3 -150z
m-838 -174 c24 -6 69 -27 100 -46 118 -72 184 -174 178 -276 l-3 -54 -160 -3
c-142 -2 -161 -1 -172 15 -7 9 -13 27 -13 39 0 12 -12 36 -26 53 -24 29 -30
31 -93 31 -61 0 -70 -3 -94 -28 -36 -37 -44 -82 -22 -116 26 -40 87 -63 250
-97 28 -5 64 -16 80 -24 17 -7 50 -22 75 -33 59 -26 132 -91 161 -144 19 -36
23 -58 23 -143 1 -89 -2 -105 -26 -150 -51 -98 -170 -182 -291 -207 -153 -31
-302 -17 -415 39 -120 59 -226 202 -227 308 l0 50 155 0 155 0 13 -40 c24 -74
86 -114 167 -109 17 1 41 2 53 3 35 2 82 56 82 95 0 61 -62 99 -218 136 -270
63 -382 168 -382 357 0 63 5 85 30 138 48 101 164 193 275 219 39 9 301 -1
345 -13z m-846 -7 c14 -14 16 -80 16 -583 0 -428 -3 -570 -12 -579 -8 -8 -60
-12 -168 -12 -108 0 -160 4 -168 12 -9 9 -12 151 -12 578 0 311 4 570 8 576
13 20 35 22 179 23 116 1 144 -2 157 -15z m688 -311 c25 -22 24 -73 -1 -73
-10 0 -24 7 -31 15 -7 8 -21 15 -31 15 -12 0 -19 7 -19 18 0 41 48 56 82 25z
m-65 -463 c14 -11 36 -20 48 -20 30 0 59 -32 43 -48 -16 -16 -113 -15 -126 1
-5 6 -15 29 -20 50 -10 34 -9 37 10 37 11 0 31 -9 45 -20z"/>
<path d="M6871 10337 c-6 -8 -23 -12 -39 -9 -23 3 -40 -7 -97 -60 -39 -36 -78
-67 -87 -71 -10 -3 -24 -22 -32 -40 -8 -19 -19 -38 -25 -41 -6 -4 -11 -17 -11
-30 0 -13 -9 -31 -19 -40 -18 -16 -19 -27 -14 -105 3 -53 11 -92 20 -101 9
-10 41 -17 95 -20 l81 -5 -51 -33 c-72 -46 -152 -121 -152 -142 0 -10 -7 -23
-15 -30 -12 -10 -15 -43 -15 -175 0 -149 2 -163 20 -180 11 -10 20 -26 20 -35
0 -10 36 -55 81 -100 77 -78 83 -82 117 -77 26 5 41 1 60 -13 34 -28 199 -29
239 -3 15 10 37 16 50 15 14 -2 36 7 55 23 31 26 32 26 39 7 4 -11 23 -29 42
-41 30 -18 50 -21 147 -21 112 0 112 0 89 -19 -23 -19 -24 -24 -28 -196 -4
-240 -19 -225 225 -225 149 0 184 3 194 15 7 8 20 15 30 15 9 0 25 9 35 20 10
11 23 20 28 20 19 0 98 72 125 114 46 72 59 103 65 157 4 29 11 57 17 63 6 6
11 195 12 546 1 294 3 512 5 483 2 -29 10 -57 18 -63 8 -7 15 -27 15 -45 0
-18 7 -38 15 -45 9 -7 15 -29 15 -55 0 -29 6 -47 20 -60 14 -13 20 -31 20 -60
0 -26 6 -48 15 -55 8 -7 15 -27 15 -45 0 -18 7 -38 15 -45 9 -8 15 -30 15 -56
0 -33 5 -47 20 -56 15 -10 20 -24 20 -54 0 -25 6 -47 15 -54 8 -7 15 -29 15
-49 0 -20 7 -45 15 -55 8 -11 15 -38 15 -61 0 -32 6 -47 28 -68 l28 -27 213 0
c199 0 215 1 242 21 24 17 29 27 29 63 0 27 6 48 15 56 8 7 15 29 15 50 0 21
7 43 15 50 9 7 15 29 15 55 0 26 6 48 15 55 8 7 15 24 15 39 0 14 6 38 14 53
8 14 17 45 21 67 4 23 10 43 15 46 4 3 11 25 14 50 4 25 14 57 22 73 7 15 14
39 14 53 0 15 7 40 15 55 8 16 15 38 15 48 0 11 8 28 17 38 9 10 18 37 19 59
1 22 9 48 18 58 9 10 16 34 16 53 0 20 7 41 15 48 19 16 22 179 3 198 -9 9
-72 12 -221 12 l-208 0 -35 -26 c-33 -25 -34 -29 -34 -91 0 -50 -5 -71 -20
-90 -14 -19 -20 -41 -20 -82 -1 -33 -7 -64 -15 -75 -8 -11 -15 -40 -15 -64 0
-38 -2 -43 -15 -32 -9 7 -15 29 -15 54 0 22 -6 53 -13 67 -8 14 -17 56 -21 94
-4 38 -11 74 -15 80 -5 5 -11 37 -15 70 -12 102 25 95 -481 95 -415 0 -443 -1
-458 -18 -15 -17 -17 -74 -18 -603 -1 -321 -5 -560 -8 -532 -4 29 -12 58 -19
65 -9 9 -12 103 -12 379 0 314 -2 368 -15 379 -8 7 -15 27 -15 45 0 18 -7 38
-15 45 -8 6 -17 22 -21 33 -4 12 -45 59 -91 105 -72 70 -89 82 -118 82 -19 0
-37 5 -40 10 -10 16 -430 13 -444 -3z m410 -59 c83 -28 126 -55 177 -113 93
-106 101 -145 105 -560 4 -311 6 -335 28 -418 21 -77 22 -89 9 -97 -8 -5 -81
-10 -162 -10 -167 0 -176 4 -197 83 -19 74 -22 74 -87 9 -74 -73 -135 -96
-240 -89 -105 7 -158 25 -222 77 -83 67 -116 136 -120 257 -3 81 -1 98 21 147
49 106 139 177 263 207 51 12 58 13 239 26 l110 8 3 49 c4 58 -19 118 -54 141
-14 9 -46 15 -83 15 -54 0 -61 -3 -80 -29 -11 -15 -25 -40 -31 -55 l-10 -26
-160 0 -160 0 -10 25 c-10 27 8 102 42 166 34 67 123 137 228 183 52 22 64 24
201 25 104 1 136 -3 190 -21z m803 -4 c14 -14 16 -84 16 -620 0 -605 -5 -713
-36 -772 -8 -15 -14 -30 -14 -34 0 -17 -64 -100 -98 -127 -43 -33 -111 -66
-167 -79 -43 -11 -221 -6 -249 6 l-29 12 8 123 c8 139 16 162 51 153 13 -3 35
-9 49 -12 39 -10 101 36 114 83 7 25 11 253 11 645 0 538 2 608 16 622 13 13
42 16 164 16 122 0 151 -3 164 -16z m449 4 c16 -13 28 -62 91 -368 8 -41 25
-118 36 -170 18 -80 38 -197 40 -235 3 -44 37 94 80 325 5 25 21 99 35 165 14
66 30 147 36 179 10 61 24 96 43 108 6 4 81 8 167 8 191 0 193 -1 161 -93 -12
-34 -22 -71 -22 -82 -1 -11 -7 -29 -15 -39 -8 -11 -15 -31 -15 -45 -1 -14 -7
-37 -15 -51 -8 -14 -14 -35 -15 -47 0 -12 -6 -37 -14 -55 -8 -18 -53 -166
-101 -328 -47 -162 -90 -302 -94 -310 -5 -9 -12 -31 -16 -50 -4 -19 -14 -47
-21 -62 l-15 -28 -168 0 c-123 0 -171 3 -179 13 -5 6 -24 62 -42 122 -18 61
-38 125 -46 143 -8 18 -14 43 -14 55 -1 12 -7 33 -15 47 -8 14 -14 35 -15 47
0 12 -6 37 -14 55 -8 18 -29 83 -46 143 -18 61 -38 128 -45 150 -7 22 -25 81
-40 130 -14 50 -30 101 -35 115 -27 80 -42 141 -37 155 5 13 32 15 170 15 115
0 168 -4 180 -12z m-1422 -345 c20 -25 39 -61 39 -73 0 -6 -29 -10 -69 -10
l-68 0 5 28 c6 33 39 72 62 72 9 0 23 -8 31 -17z m559 -910 c0 -12 -49 -32
-55 -23 -4 7 16 18 53 29 1 1 2 -2 2 -6z"/>
<path d="M6988 9575 c-48 -32 -58 -52 -58 -115 0 -64 21 -96 70 -111 52 -16
120 5 171 52 l40 37 -3 78 -3 79 -90 2 c-81 2 -94 0 -127 -22z m160 -67 c-2
-32 -9 -45 -24 -53 -12 -6 -29 -17 -37 -24 -9 -7 -33 -11 -54 -9 -32 3 -38 7
-41 28 -2 19 7 36 34 63 32 31 44 37 81 37 l44 0 -3 -42z"/>
<path d="M10070 10335 c-7 -8 -20 -15 -30 -15 -35 0 -81 -33 -149 -106 -39
-42 -71 -81 -71 -88 0 -6 -9 -17 -20 -24 -19 -11 -20 -23 -20 -167 0 -144 1
-156 20 -167 11 -7 20 -18 20 -25 0 -16 119 -133 135 -133 7 0 20 -9 30 -20
18 -20 17 -20 -92 -20 -143 0 -143 0 -143 -137 0 -77 3 -103 15 -113 8 -7 15
-20 15 -29 0 -9 16 -31 35 -50 19 -19 35 -37 35 -41 0 -9 114 -100 151 -121
16 -9 36 -22 44 -29 8 -7 27 -10 42 -7 15 3 35 1 45 -4 10 -5 27 -13 38 -19
11 -5 71 -10 135 -10 96 0 120 3 150 20 27 15 46 19 75 14 36 -6 44 -2 112 51
40 32 83 61 96 66 12 5 25 17 29 26 3 10 19 34 35 54 18 24 28 49 28 71 0 19
7 43 15 54 20 26 20 142 0 168 -8 11 -15 37 -15 59 0 51 -37 98 -132 169 l-72
53 86 3 c121 4 124 8 120 165 -2 89 -6 125 -17 137 -8 9 -15 24 -15 34 0 9
-16 26 -35 37 -19 12 -35 24 -35 28 0 4 -29 31 -64 59 -46 37 -72 52 -94 52
-17 0 -34 5 -37 10 -4 6 -91 10 -229 10 -187 0 -226 -2 -236 -15z m420 -54
c93 -32 142 -61 195 -116 54 -56 95 -142 95 -199 0 -68 4 -66 -170 -66 -173 0
-174 0 -185 63 -10 54 -47 77 -122 77 -40 -1 -64 -6 -79 -18 -52 -44 -59 -108
-15 -144 36 -31 64 -41 181 -68 52 -12 109 -28 125 -35 17 -6 46 -18 65 -25
66 -26 147 -96 175 -154 22 -45 26 -67 26 -141 1 -78 -3 -94 -31 -151 -47 -96
-177 -189 -282 -201 -27 -3 -51 -10 -54 -14 -8 -13 -175 -11 -231 2 -81 19
-136 41 -181 71 -93 63 -161 157 -182 252 -19 87 -21 86 154 86 l153 0 18 -47
c10 -27 27 -58 38 -70 31 -35 114 -47 194 -29 42 10 77 64 68 105 -12 55 -72
86 -255 132 -179 44 -286 121 -329 237 -67 178 44 378 252 453 75 27 299 27
377 0z m-142 -313 c7 -7 12 -27 12 -45 0 -26 -4 -33 -19 -33 -10 0 -24 7 -31
15 -7 8 -21 15 -31 15 -12 0 -19 7 -19 18 0 25 20 42 50 42 14 0 31 -5 38 -12z
m-73 -468 c10 -11 28 -20 40 -20 25 0 60 -34 50 -49 -9 -15 -110 -14 -123 2
-5 6 -12 29 -14 50 -3 29 -1 37 12 37 10 0 25 -9 35 -20z"/>
<path d="M13560 10335 c-7 -8 -23 -15 -35 -15 -33 0 -66 -20 -119 -70 -26 -25
-53 -48 -60 -52 -8 -5 -24 -28 -36 -52 -11 -24 -32 -52 -45 -60 -18 -12 -25
-25 -25 -50 0 -18 -7 -39 -15 -46 -10 -8 -15 -30 -15 -65 0 -35 -5 -57 -15
-65 -12 -10 -15 -43 -15 -175 0 -132 3 -165 15 -175 10 -8 15 -30 15 -65 0
-35 5 -57 15 -65 8 -7 15 -21 15 -31 0 -10 9 -24 20 -31 11 -7 20 -19 20 -27
0 -32 195 -221 228 -221 5 0 16 -7 23 -16 9 -11 23 -14 46 -11 21 4 46 -1 72
-14 32 -15 62 -19 156 -19 63 0 124 5 135 10 11 6 29 14 40 20 10 5 39 7 63 4
32 -5 46 -2 56 10 7 9 21 16 31 16 9 0 28 8 41 18 13 10 31 22 39 26 81 38 90
51 90 126 0 52 -4 73 -20 93 -11 14 -20 39 -20 55 0 16 -7 35 -15 42 -8 7 -15
20 -15 30 0 9 -8 24 -18 33 -24 22 -114 23 -132 2 -7 -8 -29 -15 -49 -15 -20
0 -42 -5 -48 -11 -20 -20 -182 -17 -225 4 -21 10 -38 24 -38 32 0 13 43 15
288 15 272 0 290 1 306 19 16 17 17 40 14 205 -2 131 -7 189 -15 198 -7 6 -13
28 -13 49 0 21 -8 47 -20 62 -11 14 -20 34 -20 44 0 19 -125 165 -178 210 -15
12 -39 22 -54 23 -15 0 -30 5 -33 10 -4 6 -86 10 -214 10 -173 0 -211 -3 -221
-15z m391 -54 c160 -54 265 -191 295 -384 20 -131 19 -281 -2 -302 -15 -14
-51 -16 -313 -14 l-296 1 -3 -27 c-4 -28 21 -86 48 -116 18 -19 63 -43 105
-55 63 -19 321 25 341 57 11 18 35 8 44 -18 6 -16 14 -37 19 -48 25 -57 53
-146 48 -157 -5 -15 -131 -79 -192 -99 -72 -23 -138 -32 -245 -32 -178 -1
-272 34 -380 143 -99 99 -140 189 -161 356 -9 76 -9 118 0 198 24 196 81 312
211 429 22 20 76 47 135 68 72 26 268 26 346 0z"/>
<path d="M13692 9979 c-42 -39 -59 -74 -64 -129 l-3 -45 143 -3 142 -3 0 48
c0 57 -28 124 -61 147 -14 10 -43 16 -74 16 -42 0 -55 -5 -83 -31z m130 -74
c15 -22 27 -43 28 -47 0 -5 -31 -8 -69 -8 l-68 0 5 28 c6 33 41 74 61 70 8 -2
28 -21 43 -43z"/>
<path d="M14352 10338 c-17 -17 -17 -1259 0 -1276 17 -17 429 -17 446 0 9 9
12 119 12 435 l0 423 24 0 c13 0 29 7 36 15 17 20 33 19 53 -3 15 -17 17 -61
17 -428 0 -354 2 -413 16 -432 15 -22 19 -22 243 -22 163 0 230 3 239 12 9 9
12 119 12 435 0 407 1 423 19 423 10 0 24 7 31 15 10 13 15 12 36 -3 13 -9 24
-22 24 -28 0 -6 7 -17 15 -24 13 -11 15 -69 15 -409 0 -295 3 -400 12 -409 17
-17 429 -17 446 0 7 7 12 46 13 98 1 47 4 76 6 65 7 -25 107 -134 145 -157 16
-10 43 -18 61 -18 17 0 43 -9 57 -20 21 -16 41 -20 116 -20 62 0 101 5 120 15
16 8 44 15 61 15 22 0 37 7 45 20 17 26 20 25 58 -10 42 -39 66 -42 274 -38
173 3 178 4 197 27 25 30 24 82 -1 114 -13 17 -20 40 -20 70 0 27 -6 49 -15
57 -8 7 -15 29 -15 48 0 35 1 35 14 16 8 -11 18 -32 21 -45 3 -13 22 -40 40
-58 19 -19 35 -37 35 -40 0 -10 146 -131 158 -131 5 0 16 -7 23 -16 9 -11 23
-14 46 -11 21 4 46 -1 72 -14 59 -28 264 -28 301 1 17 13 41 20 72 20 26 0 50
5 53 10 3 6 12 10 20 10 23 0 170 116 185 147 8 15 24 35 35 45 19 15 20 28
20 193 0 165 -1 178 -20 193 -11 10 -31 32 -43 50 -13 17 -28 32 -34 32 -6 0
-27 15 -48 33 -20 17 -45 37 -56 44 -16 10 -4 12 68 12 l87 1 26 35 c27 34 27
36 20 139 -5 70 -12 109 -21 117 -8 6 -14 19 -14 28 0 9 -28 41 -62 71 -35 30
-69 62 -76 72 -7 10 -19 18 -26 18 -8 0 -19 7 -26 15 -7 8 -25 15 -41 15 -15
0 -31 5 -34 10 -4 6 -92 10 -230 10 -138 0 -226 -4 -230 -10 -3 -5 -22 -10
-41 -10 -29 0 -45 -11 -122 -87 -52 -52 -99 -110 -115 -141 -25 -50 -27 -63
-27 -171 l0 -116 35 -52 c19 -29 35 -56 35 -61 0 -5 35 -36 78 -68 l77 -59
-110 -3 c-98 -2 -112 -5 -127 -23 -17 -20 -18 -11 -18 213 0 190 -3 238 -15
254 -8 10 -15 33 -15 50 0 17 -6 37 -14 43 -8 7 -17 22 -20 35 -3 13 -45 60
-92 105 -72 68 -92 81 -120 81 -18 0 -36 5 -39 10 -4 6 -88 10 -219 10 -178 0
-216 -3 -226 -15 -7 -8 -22 -15 -35 -15 -35 0 -76 -25 -143 -89 -73 -69 -112
-123 -112 -154 0 -12 -7 -31 -15 -41 -22 -29 -21 -179 1 -197 10 -8 51 -16 98
-19 l81 -5 -31 -17 c-48 -26 -145 -119 -160 -153 -11 -26 -13 -1 -14 186 0
180 -3 219 -15 229 -8 7 -15 26 -15 42 0 39 -116 189 -164 212 -20 9 -38 21
-41 26 -8 13 -342 13 -350 0 -3 -5 -17 -10 -30 -10 -15 0 -37 -16 -63 -45
l-39 -44 -33 34 c-64 66 -97 75 -273 75 -89 0 -158 -4 -162 -10 -3 -5 -22 -14
-42 -19 -32 -9 -38 -8 -50 9 -13 19 -27 20 -217 20 -144 0 -205 -3 -214 -12z
m366 -50 c7 -7 12 -36 12 -65 0 -66 15 -69 72 -12 66 65 132 89 246 89 133 0
178 -25 275 -151 14 -19 19 -21 24 -9 12 32 107 113 159 136 72 32 216 34 281
4 58 -26 128 -99 156 -162 55 -123 58 -159 55 -603 l-3 -410 -164 -3 c-112 -2
-168 1 -177 9 -12 9 -14 82 -14 406 0 344 -2 398 -16 425 -26 51 -53 67 -110
68 -41 0 -59 -6 -92 -30 -23 -17 -42 -36 -43 -43 0 -6 0 -191 1 -410 1 -294
-2 -402 -11 -413 -9 -11 -45 -14 -168 -14 -86 0 -162 4 -168 8 -10 6 -13 97
-13 378 -1 409 -7 458 -56 501 -42 36 -110 32 -166 -10 l-43 -33 -3 -417 -2
-417 -23 -5 c-12 -3 -92 -4 -177 -3 l-155 3 -3 585 c-1 322 0 591 3 598 6 17
306 17 323 0z m2083 -10 c108 -36 182 -96 231 -188 41 -75 47 -137 52 -485 3
-309 5 -336 27 -418 21 -77 22 -89 9 -97 -8 -5 -81 -10 -161 -10 -138 0 -147
1 -166 23 -11 12 -24 33 -28 47 -12 46 -27 80 -35 80 -5 0 -16 -13 -27 -29
-50 -80 -155 -126 -269 -118 -105 7 -158 25 -222 77 -82 66 -115 136 -120 257
-4 87 -3 95 28 157 35 72 100 138 165 166 48 21 137 43 185 46 19 2 85 6 145
11 l110 8 3 52 c3 58 -24 125 -57 143 -11 5 -45 10 -75 10 -63 0 -85 -15 -110
-75 l-15 -35 -163 2 -163 3 1 57 c2 115 89 226 227 294 84 41 85 41 238 43
104 1 136 -3 190 -21z m1099 3 c60 -16 146 -70 197 -123 45 -47 79 -119 86
-185 8 -72 4 -74 -178 -71 l-160 3 -10 42 c-6 23 -21 53 -34 67 -21 23 -33 26
-86 26 -71 0 -104 -19 -125 -70 -11 -27 -11 -37 3 -65 21 -45 82 -71 247 -106
82 -17 198 -71 250 -117 61 -53 80 -87 96 -169 13 -72 2 -150 -33 -218 -45
-87 -169 -173 -286 -197 -69 -15 -249 -14 -312 0 -170 40 -329 207 -330 347
l0 50 155 0 155 0 11 -34 c25 -78 87 -120 169 -115 17 1 40 2 53 3 13 0 37 14
53 30 41 42 40 89 -4 128 -33 29 -73 44 -235 88 -172 46 -257 105 -307 212
-38 79 -36 184 6 269 17 34 52 82 78 107 42 40 147 99 196 110 39 10 301 0
345 -12z m-148 -318 c10 -9 18 -29 18 -45 0 -23 -4 -28 -24 -28 -13 0 -29 7
-36 15 -7 8 -21 15 -31 15 -22 0 -26 29 -7 48 17 17 58 15 80 -5z m-1105 -62
c13 -24 23 -46 23 -48 0 -1 -30 -3 -66 -3 l-66 0 6 32 c8 41 34 70 60 66 11
-2 29 -21 43 -47z m1030 -401 c14 -11 36 -20 48 -20 25 0 60 -34 50 -49 -3 -6
-33 -11 -65 -11 -64 0 -81 12 -95 73 -6 23 -4 27 15 27 12 0 33 -9 47 -20z"/>
<path d="M16515 9580 c-50 -33 -65 -60 -64 -120 0 -64 17 -91 71 -110 48 -18
117 3 169 51 l40 37 -3 78 -3 79 -90 2 c-74 2 -95 -1 -120 -17z m155 -64 c0
-28 -7 -40 -40 -66 -31 -25 -47 -31 -77 -28 -32 3 -38 7 -41 28 -2 19 7 36 34
63 32 31 44 37 81 37 42 0 43 -1 43 -34z"/>
</g>
</svg>
