<?xml version="1.0" standalone="no"?>
<!DOCTYPE svg PUBLIC "-//W3C//DTD SVG 20010904//EN"
 "http://www.w3.org/TR/2001/REC-SVG-20010904/DTD/svg10.dtd">
<svg version="1.0" xmlns="http://www.w3.org/2000/svg"
 width="1920.000000pt" height="1080.000000pt" viewBox="0 0 1920.000000 1080.000000"
 preserveAspectRatio="xMidYMid meet">

<g transform="translate(0.000000,1080.000000) scale(0.100000,-0.100000)"
fill="#000000" stroke="none">
<path d="M2810 7320 c0 -62 -3 -82 -15 -86 -12 -5 -15 -27 -15 -110 0 -93 -2
-105 -20 -116 -14 -9 -20 -24 -20 -49 0 -33 3 -37 31 -43 40 -8 647 -8 677 0
21 6 22 12 22 94 0 69 3 89 15 94 12 4 15 26 15 112 0 97 2 106 20 111 20 5
25 27 14 57 -5 14 -47 16 -365 16 l-359 0 0 -80z"/>
<path d="M2700 6499 c0 -6 -7 -17 -15 -25 -11 -12 -15 -40 -15 -115 0 -79 -3
-101 -15 -105 -12 -5 -15 -26 -15 -103 0 -102 -7 -144 -21 -135 -5 3 -9 -36
-9 -88 0 -106 -6 -138 -26 -138 -11 0 -14 -23 -14 -110 0 -89 -3 -112 -15
-116 -12 -5 -15 -26 -15 -103 0 -111 -7 -144 -26 -137 -11 4 -14 -16 -14 -108
0 -92 -3 -115 -15 -120 -12 -4 -15 -26 -15 -103 0 -113 -7 -146 -26 -139 -11
4 -14 -16 -14 -109 0 -96 -3 -115 -15 -115 -12 0 -15 -18 -15 -104 0 -113 -4
-136 -26 -136 -11 0 -14 -17 -14 -70 0 -56 -3 -70 -15 -70 -10 0 -15 -10 -15
-30 0 -20 -5 -30 -15 -30 -8 0 -15 -7 -15 -15 0 -8 -4 -15 -10 -15 -5 0 -10
-7 -10 -15 0 -8 -9 -15 -20 -15 -11 0 -20 -7 -20 -15 0 -13 -24 -15 -160 -15
l-160 0 0 -42 c0 -57 -9 -88 -26 -88 -11 0 -14 -18 -14 -79 0 -54 -4 -84 -14
-93 -8 -9 -15 -44 -18 -87 -3 -56 -8 -76 -22 -86 -10 -8 -16 -22 -14 -32 2
-14 14 -19 56 -21 28 -2 52 -7 52 -13 0 -5 90 -9 225 -9 143 0 225 4 225 10 0
6 21 10 46 10 27 0 51 6 60 15 9 8 30 15 49 15 20 0 35 6 39 15 3 9 18 15 36
15 18 0 29 5 28 12 -2 7 11 14 27 18 17 3 29 10 27 15 -1 6 9 11 23 13 14 2
25 10 25 18 0 8 9 14 20 14 11 0 20 7 20 15 0 8 9 15 21 15 11 0 18 4 15 8 -3
5 5 18 17 29 35 32 57 62 57 78 0 8 7 15 15 15 8 0 15 7 15 15 0 8 9 15 20 15
16 0 20 7 20 30 0 20 5 30 15 30 10 0 15 10 15 28 0 45 11 74 26 68 10 -4 14
5 15 32 1 20 1 41 0 45 -1 4 6 10 14 13 10 4 15 20 15 48 0 58 10 88 26 82 11
-4 14 13 14 87 0 99 7 140 21 131 5 -3 9 36 9 88 0 106 6 138 26 138 11 0 14
21 14 98 0 103 7 145 21 136 5 -3 9 37 9 90 0 96 12 152 30 141 6 -4 10 31 10
99 0 107 5 140 21 130 5 -3 9 39 9 96 0 67 5 113 14 133 9 18 16 72 18 125 2
73 7 96 20 106 13 9 17 34 20 126 2 79 7 115 16 118 8 2 12 30 12 90 0 100 7
132 27 132 11 0 13 16 11 78 l-3 77 -347 3 c-245 1 -348 -1 -348 -9z"/>
<path d="M2142 6395 c-7 -8 -28 -15 -46 -15 -21 0 -36 -6 -40 -15 -3 -9 -18
-15 -35 -15 -16 0 -31 -6 -35 -15 -3 -9 -19 -15 -41 -15 -24 0 -35 -4 -35 -15
0 -11 -11 -15 -40 -15 -29 0 -40 -4 -40 -15 0 -11 -11 -15 -40 -15 -27 0 -39
-4 -37 -12 1 -9 -13 -14 -40 -16 -30 -2 -40 -7 -37 -16 4 -9 -7 -16 -32 -20
-20 -4 -43 -14 -51 -22 -8 -8 -23 -14 -34 -14 -11 0 -27 -7 -35 -15 -9 -8 -28
-15 -44 -15 -16 0 -30 -7 -34 -15 -3 -9 -19 -15 -41 -15 -24 0 -35 -4 -35 -15
0 -11 -11 -15 -40 -15 -27 0 -39 -4 -37 -12 1 -8 -12 -14 -35 -16 -25 -2 -38
-8 -38 -18 0 -10 -12 -14 -40 -14 -27 0 -39 -4 -37 -12 1 -9 -13 -14 -41 -16
-26 -2 -40 -7 -36 -14 9 -14 -15 -28 -47 -28 -15 0 -29 -7 -33 -15 -3 -9 -19
-15 -41 -15 -20 0 -34 -4 -31 -9 7 -11 -17 -21 -49 -21 -12 0 -25 -7 -29 -15
-3 -9 -18 -15 -40 -15 -21 0 -36 -6 -40 -15 -3 -9 -19 -15 -41 -15 -23 0 -34
-4 -32 -12 1 -9 -13 -14 -40 -16 -32 -2 -41 -7 -36 -18 4 -11 -5 -14 -41 -14
-36 0 -44 -3 -40 -15 5 -12 -3 -15 -35 -15 l-41 0 0 -285 c0 -183 4 -285 10
-285 6 0 10 -7 10 -15 0 -11 11 -15 40 -15 29 0 40 -4 40 -15 0 -11 11 -15 35
-15 22 0 38 -6 41 -15 4 -9 19 -15 40 -15 22 0 37 -6 40 -15 4 -9 19 -15 35
-15 17 0 32 -6 35 -15 4 -8 17 -15 29 -15 33 0 55 -10 55 -25 0 -9 14 -15 38
-17 20 -2 35 -7 32 -13 -3 -6 15 -12 40 -15 29 -3 44 -10 42 -17 -1 -9 11 -13
38 -13 28 0 40 -4 40 -14 0 -10 13 -16 38 -18 23 -2 36 -8 34 -15 -1 -9 10
-13 33 -13 22 0 38 -6 41 -15 4 -9 19 -15 40 -15 22 0 37 -6 40 -15 4 -8 18
-15 34 -15 16 0 35 -7 44 -15 8 -8 29 -18 45 -21 17 -4 31 -13 31 -20 0 -10
13 -14 41 -14 32 0 40 -3 36 -14 -5 -11 4 -16 36 -18 27 -2 41 -7 39 -15 -1
-9 11 -13 38 -13 29 0 40 -4 40 -15 0 -10 11 -15 35 -15 19 0 38 -6 42 -14 4
-8 24 -16 43 -18 21 -2 34 -8 32 -15 -1 -9 10 -13 33 -13 22 0 38 -6 41 -15 4
-8 19 -15 35 -15 15 0 36 -9 46 -19 10 -11 32 -21 48 -23 17 -2 29 -8 27 -15
-1 -9 14 -13 53 -13 l55 0 0 315 0 315 -30 0 c-18 0 -33 6 -36 15 -4 10 -20
15 -45 15 -26 0 -42 5 -45 15 -4 10 -20 15 -50 15 -30 0 -46 5 -50 15 -4 10
-20 15 -45 15 -26 0 -42 5 -45 15 -4 8 -18 15 -33 15 -43 0 -73 12 -67 26 4 9
-9 14 -47 16 -35 2 -51 7 -50 16 2 8 -13 12 -48 12 -41 0 -50 3 -46 14 5 12
-5 16 -46 18 -35 2 -51 7 -50 16 2 8 -11 12 -42 12 -31 0 -47 5 -51 15 -4 10
-20 15 -45 15 -23 0 -41 6 -46 14 -5 8 -27 16 -52 18 -62 4 -67 28 -7 28 33 0
46 4 46 14 0 14 29 26 63 26 10 0 25 7 33 15 9 8 29 15 45 15 17 0 37 7 45 15
9 8 33 15 55 15 26 0 38 4 36 13 -1 8 14 13 46 15 33 2 47 7 47 18 0 10 12 14
45 14 33 0 45 4 45 15 0 11 12 15 50 15 40 0 48 3 44 15 -5 12 4 15 45 15 35
0 50 4 49 13 -2 8 13 13 45 15 31 2 47 8 47 16 0 16 22 26 57 26 13 0 31 7 39
15 9 8 33 15 55 15 l39 0 0 325 c0 303 -1 325 -17 325 -10 -1 -24 -7 -31 -15z"/>
<path d="M3570 6070 l0 -310 30 0 c18 0 33 -6 36 -15 4 -8 18 -15 33 -15 44 0
73 -11 67 -26 -4 -11 7 -14 45 -14 41 0 50 -3 46 -14 -5 -12 5 -16 44 -18 27
-2 49 -7 49 -13 0 -5 21 -12 47 -15 31 -3 47 -9 46 -17 -2 -9 11 -13 42 -13
28 0 47 -5 52 -14 5 -8 27 -16 53 -18 29 -2 44 -7 43 -15 -2 -9 11 -13 42 -13
31 0 47 -5 51 -15 4 -9 19 -15 39 -15 19 0 40 -7 49 -15 8 -8 25 -15 38 -15
41 0 69 -12 64 -26 -4 -11 6 -14 42 -14 43 -1 46 -2 28 -15 -11 -8 -36 -15
-57 -15 -24 0 -39 -5 -43 -15 -3 -10 -19 -15 -46 -15 -29 0 -40 -4 -40 -15 0
-11 -12 -15 -44 -15 -30 0 -46 -5 -50 -15 -4 -10 -20 -15 -50 -15 -36 0 -44
-3 -40 -15 5 -12 -4 -15 -45 -15 -35 0 -50 -4 -48 -12 1 -9 -16 -15 -48 -19
-27 -3 -45 -7 -40 -8 21 -4 -30 -31 -58 -31 -15 0 -35 -7 -43 -15 -9 -8 -30
-15 -49 -15 -20 0 -35 -6 -39 -15 -3 -10 -19 -15 -45 -15 -25 0 -41 -5 -45
-15 -4 -10 -20 -15 -51 -15 -31 0 -44 -4 -42 -12 1 -8 -11 -14 -30 -16 l-33
-3 0 -315 0 -314 50 0 c38 0 50 4 50 15 0 10 10 15 28 15 15 0 35 9 45 20 9
11 28 20 43 20 14 0 32 7 40 15 9 8 29 15 45 15 17 0 28 4 25 9 -7 11 17 21
49 21 12 0 25 7 29 15 3 9 19 15 41 15 24 0 35 4 35 15 0 11 11 15 40 15 27 0
39 4 38 13 -2 8 12 13 39 15 32 2 41 7 36 18 -4 11 4 14 36 14 28 0 41 4 41
14 0 14 21 26 47 26 8 0 21 7 29 15 9 8 28 15 44 15 16 0 30 7 34 15 3 9 18
15 35 15 16 0 31 6 35 15 3 9 18 15 40 15 21 0 36 6 40 15 3 9 19 15 41 15 24
0 35 4 35 15 0 11 11 15 40 15 27 0 39 4 38 13 -2 7 11 13 35 15 24 2 37 8 37
18 0 10 12 14 40 14 30 0 38 3 34 14 -4 11 5 17 32 22 21 4 45 13 52 21 7 7
26 13 42 13 16 0 30 7 34 15 3 9 19 15 41 15 23 0 34 4 33 13 -2 7 11 13 35
15 24 2 37 8 37 18 0 10 13 14 47 14 25 0 44 3 40 6 -3 4 1 13 9 21 13 13 14
56 12 283 -2 148 -6 272 -10 275 -4 4 -28 10 -53 13 -33 3 -45 8 -41 18 4 10
-5 14 -34 14 -29 0 -40 4 -40 15 0 11 -11 15 -41 15 -32 0 -40 3 -36 14 5 11
-4 16 -36 18 -27 2 -41 7 -40 16 2 8 -9 12 -32 12 -22 0 -38 6 -41 15 -4 9
-19 15 -40 15 -22 0 -37 6 -40 15 -4 9 -19 15 -35 15 -17 0 -32 6 -35 15 -4 8
-17 15 -29 15 -33 0 -55 10 -55 25 0 9 -14 15 -37 17 -24 2 -37 8 -36 16 2 8
-10 12 -37 12 -29 0 -40 4 -40 15 0 11 -11 15 -40 15 -28 0 -40 4 -40 14 0 10
-13 16 -37 18 -24 2 -37 8 -35 16 1 8 -10 12 -33 12 -22 0 -38 6 -41 15 -4 8
-18 15 -34 15 -16 0 -35 7 -44 15 -8 8 -24 15 -35 15 -11 0 -26 6 -34 14 -8 8
-31 18 -51 22 -25 4 -36 11 -32 20 3 9 -7 14 -37 16 -27 2 -41 7 -39 16 1 8
-11 12 -38 12 -28 0 -40 4 -40 14 0 10 -13 16 -37 18 -21 2 -36 7 -33 13 3 6
-15 12 -40 15 -29 3 -44 10 -42 18 1 8 -10 12 -33 12 -22 0 -38 6 -41 15 -4
11 -21 15 -55 15 l-49 0 0 -310z"/>
<path d="M7610 6005 l0 -155 220 0 220 0 0 155 0 155 -220 0 -220 0 0 -155z"/>
<path d="M11056 6144 c-9 -23 -7 -267 2 -282 7 -9 58 -12 223 -10 l214 3 3
153 3 152 -220 0 c-190 0 -220 -2 -225 -16z"/>
<path d="M12850 5755 l0 -155 -75 0 -75 0 0 -155 0 -155 75 0 75 0 0 -315 c0
-273 2 -315 15 -315 12 0 15 -13 15 -60 0 -53 2 -60 20 -60 16 0 20 -7 20 -31
0 -22 5 -32 20 -36 11 -3 20 -11 20 -18 0 -7 9 -15 21 -18 12 -3 18 -10 14
-16 -4 -7 4 -11 20 -11 14 0 28 -7 31 -15 4 -10 20 -15 45 -15 26 0 42 -5 45
-15 5 -12 29 -15 129 -15 100 0 124 3 129 15 4 11 20 15 56 15 l50 0 0 59 c0
39 -4 61 -12 63 -9 3 -14 35 -16 96 l-4 92 -80 0 c-68 0 -81 3 -84 18 -3 9 -6
144 -7 300 l-2 282 88 0 87 0 0 155 0 155 -87 0 -88 0 3 155 4 155 -226 0
-226 0 0 -155z"/>
<path d="M6720 5585 c0 -11 -11 -15 -40 -15 -27 0 -39 -4 -37 -12 1 -8 -11
-14 -30 -16 -23 -2 -30 -7 -26 -18 4 -10 -2 -14 -21 -14 -14 0 -25 -3 -25 -7
3 -21 -2 -33 -15 -33 -8 0 -16 -7 -20 -15 -3 -8 -12 -15 -21 -15 -8 0 -16 -7
-16 -15 -3 -36 -5 -40 -22 -39 -13 1 -17 -6 -17 -32 0 -24 -5 -34 -15 -34 -12
0 -15 -16 -15 -80 l0 -80 205 0 205 0 0 30 c0 17 5 30 10 30 6 0 16 12 23 28
16 38 25 42 85 42 38 0 54 -4 58 -15 4 -8 12 -15 20 -15 9 0 14 -12 14 -35 0
-21 5 -35 13 -35 8 0 12 -16 13 -45 l1 -45 -179 0 c-137 0 -177 -3 -175 -12 1
-9 -17 -15 -56 -18 -31 -3 -56 -9 -55 -15 2 -5 -14 -11 -34 -13 -27 -2 -35 -7
-31 -18 3 -9 -2 -14 -16 -14 -13 0 -21 -6 -21 -16 0 -9 -9 -18 -20 -21 -11 -3
-20 -12 -20 -19 0 -8 -9 -14 -20 -14 -16 0 -20 -7 -20 -30 0 -19 -5 -30 -14
-30 -22 0 -26 -24 -26 -167 0 -126 1 -135 20 -140 14 -4 20 -14 20 -33 0 -16
7 -30 15 -34 8 -3 15 -12 15 -21 0 -8 7 -15 15 -15 8 0 15 -7 15 -15 0 -8 9
-15 20 -15 11 0 20 -7 20 -15 0 -9 9 -15 25 -15 16 0 25 -6 25 -15 0 -11 12
-15 50 -15 38 0 50 -4 50 -15 0 -12 19 -15 115 -15 87 0 114 3 112 13 -1 7 13
13 38 15 22 2 44 10 48 18 4 8 17 14 27 14 11 0 20 7 20 15 0 8 9 15 20 15 11
0 20 7 20 15 0 8 6 15 14 15 14 0 26 -29 26 -68 0 -50 13 -53 237 -50 l208 3
3 32 c3 25 0 32 -11 27 -17 -6 -27 23 -27 84 0 31 -4 42 -15 42 -13 0 -15 50
-15 387 0 212 -3 384 -6 380 -11 -11 -34 21 -34 47 0 16 -6 26 -15 26 -10 0
-15 10 -15 30 0 23 -4 30 -20 30 -11 0 -20 7 -20 15 0 8 -7 15 -15 15 -8 0
-15 9 -15 20 0 13 -7 20 -20 20 -11 0 -20 6 -20 14 0 9 -12 16 -27 18 -16 2
-27 8 -25 13 1 6 -14 12 -35 15 -23 3 -37 10 -35 18 1 9 -50 12 -223 12 -193
0 -225 -2 -225 -15z m324 -776 c-1 -40 -7 -75 -12 -78 -4 -3 -11 -14 -15 -23
-3 -10 -15 -18 -26 -18 -10 0 -22 -7 -25 -15 -5 -13 -21 -15 -83 -13 -56 2
-77 7 -75 16 1 6 -5 12 -13 12 -11 0 -15 12 -15 50 0 29 5 50 11 50 5 0 7 5 4
10 -3 6 -1 10 4 10 6 0 11 9 11 20 0 16 7 20 30 20 20 0 30 5 30 15 0 12 16
15 88 15 l88 0 -2 -71z"/>
<path d="M7610 4950 l0 -650 -22 -25 c-12 -14 -27 -25 -34 -25 -6 0 -14 -7
-18 -15 -3 -8 -12 -15 -20 -15 -8 0 -21 7 -30 15 -9 9 -33 15 -64 15 -43 0
-50 -3 -56 -22 -8 -30 -8 -282 0 -302 9 -23 374 -24 374 -1 0 11 11 15 40 15
29 0 40 4 40 15 0 9 9 15 25 15 16 0 25 6 25 15 0 8 8 15 19 15 10 0 21 9 24
20 3 11 12 20 20 20 8 0 18 11 21 25 4 14 11 25 16 25 6 0 10 7 10 16 0 18 25
46 34 37 3 -4 6 21 6 55 0 48 3 62 15 62 13 0 15 81 15 670 l0 670 -220 0
-220 0 0 -650z"/>
<path d="M8090 5540 c0 -47 3 -60 15 -60 12 0 15 -13 15 -60 0 -51 2 -59 17
-53 11 4 14 3 9 -5 -4 -7 -2 -12 3 -12 6 0 11 -20 11 -45 0 -33 4 -45 15 -45
11 0 15 -12 15 -50 0 -43 3 -50 20 -50 18 0 20 -7 20 -56 0 -30 4 -53 9 -50
12 8 21 -18 21 -64 0 -25 6 -42 15 -48 9 -4 18 -26 22 -48 3 -21 12 -43 20
-47 8 -5 13 -27 13 -62 0 -45 3 -55 20 -60 15 -5 19 -12 14 -30 -8 -31 4 -65
22 -65 11 0 14 -15 14 -62 0 -38 4 -58 9 -50 12 19 21 -8 21 -60 0 -31 4 -41
20 -45 11 -3 20 -12 20 -19 0 -12 39 -14 216 -14 141 0 213 3 209 10 -3 6 1
10 9 10 13 0 16 12 16 55 0 42 3 55 15 55 11 0 15 12 15 45 0 32 4 45 14 45
17 0 27 37 19 68 -3 13 -1 22 6 22 6 0 11 8 11 18 0 14 2 15 10 2 7 -11 10 3
10 48 0 48 3 62 15 62 11 0 15 12 15 44 0 35 4 45 20 49 16 4 20 14 20 45 0
47 8 74 21 66 5 -3 9 20 9 50 0 49 2 56 20 56 17 0 20 7 20 44 0 51 8 78 21
70 5 -3 9 20 9 50 0 49 2 56 20 56 17 0 20 7 20 41 0 24 6 47 14 53 8 6 17 41
21 84 l6 72 -216 0 c-151 0 -214 -3 -210 -11 4 -6 -2 -13 -14 -16 -19 -5 -21
-12 -21 -84 0 -64 -3 -79 -15 -79 -12 0 -15 -15 -15 -74 0 -66 -2 -75 -20 -81
-18 -6 -20 -15 -20 -81 0 -59 -3 -74 -15 -74 -12 0 -15 -14 -16 -62 0 -35 -9
-85 -19 -113 l-18 -50 -1 61 c-1 45 -5 63 -16 68 -11 4 -15 22 -15 76 0 39 -4
69 -9 66 -15 -10 -23 26 -21 92 1 49 -2 62 -13 62 -21 0 -27 22 -27 101 0 54
-3 69 -15 69 -10 0 -15 16 -17 63 l-3 62 -222 3 -223 2 0 -60z"/>
<path d="M10170 5585 c0 -10 -11 -15 -35 -15 -24 0 -35 -5 -35 -15 0 -10 -10
-15 -30 -15 -18 0 -29 -5 -27 -12 1 -7 -8 -14 -20 -16 -12 -2 -25 -12 -28 -23
-4 -10 -12 -19 -20 -19 -7 0 -18 -13 -24 -30 -5 -16 -14 -30 -20 -30 -5 0 -12
-14 -16 -31 -5 -20 -11 -29 -21 -25 -12 4 -14 -18 -14 -129 0 -111 2 -133 14
-129 10 4 16 -5 21 -25 4 -17 13 -31 21 -31 8 0 14 -9 14 -20 0 -11 7 -20 15
-20 8 0 15 -7 15 -15 0 -8 9 -15 20 -15 11 0 20 -6 20 -14 0 -9 12 -16 28 -18
15 -2 26 -8 25 -15 -2 -9 9 -13 32 -13 24 0 35 -5 35 -15 0 -11 12 -15 50 -15
38 0 50 -4 50 -15 0 -12 14 -15 65 -15 49 0 67 -4 71 -15 4 -10 20 -15 50 -15
31 0 44 -4 44 -14 0 -7 10 -16 21 -19 15 -4 20 -11 15 -22 -4 -10 -2 -14 5 -9
22 13 29 -20 8 -39 -10 -10 -19 -27 -19 -37 0 -19 -7 -20 -100 -20 -80 0 -102
3 -106 15 -4 8 -12 15 -20 15 -10 0 -14 14 -14 53 0 35 -3 47 -9 38 -8 -12
-11 -9 -16 12 l-7 27 -189 0 -189 0 0 -91 c0 -50 4 -88 9 -85 11 7 21 -17 21
-50 0 -17 6 -24 20 -24 11 0 20 -7 20 -15 0 -8 5 -15 11 -15 14 0 59 -47 59
-61 0 -5 9 -9 20 -9 11 0 20 -7 20 -15 0 -8 9 -15 20 -15 11 0 20 -7 20 -15 0
-10 10 -15 30 -15 16 0 33 -6 37 -14 5 -9 28 -16 63 -18 37 -2 54 -7 53 -15
-2 -10 30 -13 136 -13 114 0 140 3 145 15 4 11 21 15 66 15 47 0 60 3 60 15 0
10 11 15 35 15 24 0 35 5 35 15 0 9 9 15 25 15 16 0 25 6 25 15 0 8 9 15 20
15 11 0 20 7 20 15 0 8 7 15 15 15 8 0 15 7 15 15 0 9 7 18 15 21 8 4 15 12
15 19 0 7 9 15 20 18 16 4 20 14 20 45 0 26 5 42 15 46 11 4 15 22 15 75 0 52
-4 70 -15 75 -10 4 -15 20 -15 51 0 38 -3 45 -20 45 -13 0 -20 7 -20 20 0 11
-7 20 -15 20 -8 0 -15 7 -15 15 0 8 -6 15 -14 15 -8 0 -16 7 -20 15 -3 8 -15
15 -27 15 -14 0 -19 5 -16 14 4 11 -3 16 -26 18 -19 2 -31 8 -29 16 1 8 -12
12 -43 12 -33 0 -45 4 -45 15 0 11 -13 15 -55 15 -37 0 -57 5 -62 14 -6 10
-29 16 -73 18 -45 2 -64 7 -62 16 1 7 -9 12 -25 12 -46 0 -56 14 -58 74 -2 48
0 56 15 56 10 0 21 7 24 15 8 21 133 18 129 -2 -2 -7 6 -13 17 -13 16 0 19 -8
22 -62 l3 -63 200 -3 200 -2 12 25 c7 16 9 54 6 106 -5 68 -9 82 -25 87 -12 3
-18 14 -18 33 0 19 -5 29 -15 29 -7 0 -18 6 -22 13 -4 8 -16 16 -25 20 -10 3
-18 13 -18 22 0 9 -9 15 -21 15 -14 0 -19 5 -16 14 4 11 -4 16 -31 18 -23 2
-36 8 -34 16 1 8 -10 12 -33 12 -24 0 -35 5 -35 15 0 13 -32 15 -230 15 -198
0 -230 -2 -230 -15z"/>
<path d="M11055 5578 c-3 -13 -4 -286 -3 -608 l3 -585 223 -3 222 -2 0 610 0
610 -220 0 c-219 0 -220 0 -225 -22z"/>
<path d="M11930 5585 c0 -10 -11 -15 -35 -15 -24 0 -35 -5 -35 -15 0 -10 -10
-15 -30 -15 -18 0 -29 -5 -27 -12 1 -7 -11 -15 -28 -19 -16 -4 -26 -7 -20 -8
5 0 -3 -12 -18 -26 -15 -14 -27 -33 -27 -41 0 -8 -6 -17 -14 -20 -8 -3 -18
-19 -21 -35 -4 -16 -13 -29 -21 -29 -11 0 -14 -24 -14 -125 0 -101 3 -125 14
-125 8 0 17 -13 21 -30 4 -16 13 -30 21 -30 8 0 14 -9 14 -20 0 -11 7 -20 15
-20 8 0 15 -7 15 -15 0 -8 9 -15 20 -15 11 0 20 -7 20 -15 0 -9 9 -15 25 -15
16 0 25 -6 25 -15 0 -10 11 -15 35 -15 24 0 35 -5 35 -15 0 -11 12 -15 50 -15
38 0 50 -4 50 -15 0 -12 14 -15 65 -15 49 0 67 -4 71 -15 4 -10 20 -15 50 -15
31 0 44 -4 44 -14 0 -7 10 -16 21 -19 14 -4 20 -11 16 -21 -4 -10 -1 -13 9 -9
19 7 19 -24 -1 -43 -8 -9 -15 -24 -15 -35 0 -18 -8 -19 -105 -19 -87 0 -105 3
-105 15 0 8 -7 15 -15 15 -11 0 -15 13 -15 53 0 35 -3 47 -9 38 -8 -12 -11 -9
-16 12 l-7 27 -189 0 -189 0 0 -81 c0 -58 4 -85 15 -95 8 -9 15 -29 15 -45 0
-22 5 -29 20 -29 11 0 20 -7 20 -15 0 -8 7 -15 15 -15 8 0 15 -7 15 -16 0 -9
9 -18 21 -21 12 -3 18 -11 15 -19 -4 -10 3 -14 20 -14 19 0 25 -4 21 -14 -4
-9 1 -16 14 -18 11 -2 19 -7 19 -13 0 -5 16 -12 37 -15 23 -3 37 -10 36 -18
-2 -8 12 -12 46 -12 56 0 84 -8 75 -21 -3 -5 55 -9 135 -9 119 0 141 2 141 15
0 12 14 15 65 15 51 0 65 3 65 15 0 10 11 15 35 15 23 0 34 4 32 13 -1 7 10
13 26 15 15 2 27 9 27 18 0 8 9 14 20 14 11 0 20 7 20 15 0 8 6 15 14 15 7 0
16 9 19 21 3 12 10 18 16 14 7 -3 11 2 11 14 0 12 6 21 14 21 17 0 28 37 20
67 -4 15 0 23 15 28 19 6 21 14 21 72 0 48 -4 69 -16 77 -8 7 -18 31 -21 54
-3 26 -11 42 -19 42 -8 0 -14 9 -14 20 0 11 -6 20 -12 20 -7 1 -24 14 -38 30
-13 17 -33 30 -43 30 -13 0 -17 5 -14 14 4 11 -3 16 -26 18 -19 2 -31 8 -29
16 1 8 -12 12 -43 12 -33 0 -45 4 -45 15 0 12 -13 15 -60 15 -46 0 -60 3 -60
15 0 11 -16 15 -67 17 -48 2 -67 7 -65 16 1 8 -10 12 -33 12 -42 0 -55 20 -55
84 0 39 3 46 20 46 11 0 20 7 20 15 0 12 14 15 65 15 51 0 65 -3 65 -15 0 -8
9 -15 20 -15 16 0 19 -8 22 -62 l3 -63 200 -3 201 -2 12 34 c10 26 10 41 2 56
-6 11 -8 25 -4 31 11 19 -6 99 -22 99 -9 0 -14 11 -14 30 0 20 -5 30 -15 30
-7 0 -18 6 -22 13 -4 8 -16 16 -25 20 -10 3 -18 13 -18 22 0 9 -9 15 -21 15
-14 0 -19 5 -16 14 4 11 -3 16 -29 18 -19 2 -34 8 -34 13 0 6 -16 12 -37 15
-23 3 -37 10 -35 18 1 9 -51 12 -228 12 -198 0 -230 -2 -230 -15z"/>
<path d="M13923 5588 c1 -8 -12 -14 -35 -16 -25 -2 -38 -8 -38 -18 0 -9 -11
-14 -30 -14 -20 0 -30 -5 -30 -15 0 -8 -9 -15 -20 -15 -11 0 -20 -6 -20 -12 0
-15 -43 -58 -58 -58 -6 0 -13 -13 -17 -30 -4 -16 -13 -30 -21 -30 -8 0 -14 -7
-14 -15 0 -8 -7 -15 -15 -15 -11 0 -15 -12 -15 -44 0 -35 -4 -45 -20 -49 -17
-4 -20 -14 -20 -66 0 -48 -3 -61 -15 -61 -13 0 -15 -24 -15 -155 0 -131 2
-155 15 -155 12 0 15 -13 15 -61 0 -52 3 -62 20 -66 14 -4 20 -14 20 -34 0
-19 5 -29 15 -29 10 0 15 -10 15 -30 0 -23 4 -30 20 -30 11 0 20 -7 20 -15 0
-8 7 -15 15 -15 8 0 15 -7 15 -16 0 -9 9 -18 20 -21 11 -3 20 -12 20 -19 0 -8
9 -14 21 -14 15 0 19 -5 15 -15 -4 -11 1 -15 19 -15 15 0 25 -6 25 -14 0 -9
12 -16 33 -18 19 -2 31 -8 30 -15 -2 -9 14 -13 57 -13 45 0 62 -4 66 -15 5
-12 31 -15 145 -15 106 0 138 3 136 13 -1 8 19 13 68 15 48 2 72 8 78 18 5 8
23 14 47 14 27 0 39 4 37 13 -1 7 12 13 35 15 27 2 35 7 31 18 -4 10 2 14 20
14 35 0 38 9 31 74 -5 37 -11 56 -20 56 -10 0 -14 14 -14 45 0 38 -3 45 -20
45 -16 0 -20 7 -20 30 0 29 -2 30 -44 30 -30 0 -46 -5 -50 -15 -4 -10 -20 -15
-50 -15 -30 0 -46 -5 -50 -15 -4 -12 -29 -15 -135 -15 -102 0 -133 3 -145 15
-8 8 -22 15 -30 15 -9 0 -16 7 -16 15 0 8 -7 15 -15 15 -10 0 -15 10 -15 34 0
25 -5 35 -20 39 -11 3 -20 10 -20 16 0 8 102 11 344 11 304 0 345 2 350 16 3
9 6 85 6 169 0 161 -3 185 -26 185 -10 0 -14 14 -14 50 0 38 -4 50 -15 50 -14
0 -20 24 -16 58 1 6 -5 12 -13 12 -9 0 -18 11 -22 25 -3 14 -11 25 -18 25 -13
0 -56 44 -56 58 0 5 -9 12 -21 15 -12 3 -18 10 -14 16 4 7 -4 11 -19 11 -16 0
-26 6 -26 15 0 10 -11 15 -35 15 -24 0 -35 5 -35 15 0 13 -31 15 -215 15 -167
0 -214 -3 -212 -12z m259 -311 c7 -7 21 -16 31 -20 12 -5 17 -18 17 -47 0 -23
4 -39 9 -35 5 3 12 -3 14 -12 3 -10 8 -28 12 -40 l6 -23 -145 0 -145 0 1 29
c1 20 7 31 19 34 12 3 19 14 19 31 0 15 14 40 32 61 28 29 40 35 75 35 23 0
48 -6 55 -13z"/>
<path d="M14780 4990 l0 -610 205 0 205 0 0 420 c0 351 2 420 14 420 7 0 16 9
19 20 3 13 14 20 30 20 14 0 27 7 31 15 3 10 19 15 42 15 30 0 44 -7 73 -38
l36 -38 0 -414 0 -415 223 -3 222 -2 0 424 c0 373 2 426 16 440 8 9 21 16 29
16 7 0 15 7 19 15 4 11 20 15 56 15 36 0 52 -4 56 -15 4 -8 12 -15 20 -15 9 0
14 -12 14 -35 0 -24 5 -35 15 -35 13 0 15 -52 15 -405 l0 -405 210 0 210 0 0
479 c0 471 0 480 -20 486 -14 4 -20 15 -20 35 0 15 -7 30 -15 34 -8 3 -15 17
-15 31 0 18 -5 25 -20 25 -13 0 -20 7 -20 20 0 11 -7 20 -15 20 -8 0 -15 7
-15 15 0 8 -9 15 -20 15 -11 0 -20 6 -20 14 0 8 -10 16 -22 18 -13 2 -22 9
-21 16 2 9 -39 12 -172 12 -149 0 -175 -2 -175 -15 0 -9 -9 -15 -25 -15 -16 0
-25 -6 -25 -15 0 -9 -10 -15 -26 -15 -14 0 -23 -4 -19 -10 3 -6 -1 -13 -9 -16
-9 -3 -16 -13 -16 -20 0 -8 -7 -17 -15 -20 -8 -4 -15 -12 -15 -20 0 -8 -4 -14
-10 -14 -5 0 -10 7 -10 15 0 8 -4 15 -10 15 -5 0 -10 9 -10 20 0 11 -7 20 -15
20 -8 0 -15 7 -15 15 0 8 -9 15 -20 15 -11 0 -20 7 -20 15 0 9 -9 15 -25 15
-16 0 -25 6 -25 15 0 13 -26 15 -170 15 -128 0 -169 -3 -167 -12 1 -7 -12 -15
-31 -18 -18 -3 -31 -9 -30 -15 2 -5 -7 -11 -19 -13 -14 -2 -20 -8 -16 -18 3
-9 -2 -14 -16 -14 -18 0 -21 6 -21 45 l0 45 -205 0 -205 0 0 -610z"/>
<path d="M16960 5585 c0 -10 -11 -15 -35 -15 -24 0 -35 -5 -35 -15 0 -10 -10
-15 -30 -15 -18 0 -29 -5 -27 -12 1 -7 -8 -14 -20 -16 -13 -2 -23 -10 -23 -19
0 -8 -9 -17 -20 -20 -11 -3 -20 -12 -20 -19 0 -8 -9 -14 -20 -14 -15 0 -20 -7
-20 -25 0 -14 -7 -28 -15 -31 -8 -4 -15 -18 -15 -34 0 -19 -6 -29 -20 -33 -19
-5 -21 -12 -18 -79 l3 -73 201 -3 202 -2 6 26 c4 14 18 43 33 65 25 38 27 39
84 39 44 0 59 -4 59 -14 0 -7 8 -16 18 -18 16 -5 18 -15 16 -69 -1 -35 0 -49
3 -31 7 48 23 39 23 -13 l0 -45 -180 0 c-139 0 -179 -3 -177 -12 1 -9 -16 -14
-55 -16 -45 -2 -56 -6 -51 -17 4 -12 -4 -15 -31 -15 -25 0 -36 -4 -36 -15 0
-8 -9 -15 -20 -15 -12 0 -20 -7 -20 -16 0 -9 -9 -18 -20 -21 -11 -3 -20 -12
-20 -19 0 -8 -9 -14 -20 -14 -16 0 -20 -7 -20 -30 0 -20 -5 -30 -15 -30 -13 0
-15 -24 -15 -155 0 -131 2 -155 15 -155 10 0 15 -10 15 -29 0 -21 6 -32 20
-36 11 -3 20 -12 20 -20 0 -7 7 -16 16 -19 8 -3 13 -10 9 -15 -3 -5 5 -11 17
-13 13 -2 22 -9 21 -16 -2 -7 8 -12 22 -12 16 0 25 -6 25 -15 0 -11 12 -15 50
-15 36 0 52 -4 56 -15 5 -12 27 -15 115 -15 90 0 109 3 109 15 0 11 12 15 45
15 30 0 44 4 42 12 -1 7 8 14 21 16 12 2 22 10 22 18 0 8 9 14 20 14 11 0 20
7 20 15 0 8 6 15 14 15 14 0 26 -29 26 -68 0 -49 13 -52 239 -52 l211 0 0 35
c0 25 -4 33 -14 29 -15 -6 -26 23 -26 72 0 18 -7 45 -15 60 -12 24 -15 90 -15
398 0 203 -3 367 -6 363 -12 -12 -32 20 -27 45 4 19 0 26 -16 31 -15 3 -21 13
-21 31 0 14 -6 26 -12 26 -16 0 -58 44 -58 59 0 6 -9 11 -20 11 -11 0 -20 7
-20 15 0 9 -9 15 -25 15 -15 0 -25 6 -25 14 0 10 -13 16 -37 18 -24 2 -37 8
-35 16 1 9 -48 12 -223 12 -193 0 -225 -2 -225 -15z m330 -769 c0 -44 -5 -69
-15 -80 -8 -8 -15 -22 -15 -30 0 -10 -9 -16 -26 -16 -14 0 -23 -4 -20 -9 9
-14 -21 -21 -95 -21 -55 0 -69 3 -69 15 0 8 -7 15 -15 15 -11 0 -15 12 -15 50
0 28 4 50 9 50 5 0 14 14 20 30 7 23 16 30 35 30 16 0 26 6 26 15 0 12 17 15
90 15 l90 0 0 -64z"/>
<path d="M18133 5588 c1 -8 -13 -15 -36 -18 -21 -3 -36 -9 -35 -15 2 -5 -11
-11 -29 -13 -23 -2 -30 -7 -26 -18 4 -10 -2 -14 -21 -14 -16 0 -26 -6 -26 -15
0 -8 -9 -19 -20 -25 -11 -6 -23 -22 -26 -36 -4 -16 -12 -23 -20 -20 -10 4 -14
-4 -14 -29 0 -24 -5 -35 -15 -35 -13 0 -15 -21 -15 -125 0 -104 2 -125 15
-125 10 0 15 -10 15 -29 0 -20 6 -30 20 -34 11 -3 20 -12 20 -21 0 -9 7 -16
15 -16 8 0 15 -7 15 -15 0 -9 9 -15 21 -15 15 0 19 -5 15 -15 -4 -11 2 -15 25
-15 23 0 30 -4 26 -14 -4 -11 4 -16 31 -18 23 -2 36 -8 35 -15 -2 -9 12 -13
47 -13 36 0 52 -4 56 -15 5 -11 23 -15 70 -15 48 0 66 -4 70 -15 4 -10 20 -15
45 -15 21 0 42 -6 46 -13 4 -8 16 -17 27 -20 11 -5 16 -13 12 -23 -3 -8 -2
-12 4 -9 18 11 23 -24 6 -40 -9 -9 -16 -25 -16 -36 0 -18 -8 -19 -105 -19 -83
0 -105 3 -105 14 0 7 -9 16 -19 19 -16 4 -18 12 -15 53 2 27 1 43 -2 36 -8
-17 -24 -5 -24 19 0 19 -7 19 -192 17 l-193 -3 -3 -82 c-2 -71 0 -83 13 -83 9
0 13 -4 10 -10 -3 -5 -1 -10 4 -10 6 0 11 -13 11 -30 0 -20 5 -30 15 -30 9 0
18 -7 21 -15 4 -8 12 -15 20 -15 8 0 14 -7 14 -15 0 -8 9 -19 20 -25 11 -6 18
-15 15 -20 -3 -5 4 -10 15 -12 12 -2 20 -7 20 -13 -1 -5 8 -12 20 -15 12 -3
21 -9 20 -15 0 -5 16 -12 37 -15 23 -3 37 -10 36 -18 -2 -8 14 -12 52 -12 40
0 57 -4 61 -15 5 -12 31 -15 145 -15 117 0 139 2 139 15 0 12 14 15 65 15 51
0 65 3 65 15 0 10 11 15 35 15 22 0 34 4 32 12 -1 7 12 14 28 18 17 3 28 10
25 15 -3 6 5 11 17 13 14 2 20 8 16 18 -3 8 1 14 10 14 9 0 19 9 22 21 4 12
12 18 21 15 9 -3 14 1 14 14 0 11 7 20 15 20 11 0 15 12 15 45 0 25 5 45 10
45 6 0 10 38 10 95 0 57 -4 95 -10 95 -5 0 -10 13 -10 29 0 20 -6 30 -20 34
-13 3 -18 10 -14 21 4 10 1 16 -9 16 -8 0 -17 7 -21 15 -3 8 -12 15 -21 15 -8
0 -15 7 -15 15 0 8 -9 15 -20 15 -11 0 -20 7 -20 15 0 10 -10 15 -31 15 -23 0
-30 4 -26 14 5 12 -5 16 -41 18 -26 2 -46 8 -44 13 1 6 -26 12 -60 15 -43 3
-62 9 -60 18 1 8 -16 12 -63 12 -49 0 -67 4 -71 15 -4 8 -19 15 -35 15 -35 0
-49 23 -49 84 0 39 3 46 20 46 11 0 20 7 20 15 0 12 13 15 60 15 45 0 62 -4
66 -15 4 -8 14 -15 25 -15 15 0 18 -9 21 -62 l3 -63 203 -3 c175 -2 202 0 202
13 0 8 5 15 10 15 6 0 10 16 10 35 0 19 -4 35 -10 35 -6 0 -10 27 -10 60 0 47
-3 60 -15 60 -10 0 -15 10 -15 30 0 23 -4 30 -20 30 -11 0 -20 6 -20 14 0 7
-9 16 -20 19 -11 3 -20 12 -20 21 0 9 -8 16 -20 16 -11 0 -20 7 -20 15 0 11
-11 15 -36 15 -27 0 -35 4 -31 14 4 11 -4 16 -31 18 -23 2 -36 8 -34 16 1 9
-50 12 -233 12 -181 0 -234 -3 -232 -12z"/>
</g>
</svg>
