<?xml version="1.0" standalone="no"?>
<!DOCTYPE svg PUBLIC "-//W3C//DTD SVG 20010904//EN"
 "http://www.w3.org/TR/2001/REC-SVG-20010904/DTD/svg10.dtd">
<svg version="1.0" xmlns="http://www.w3.org/2000/svg"
 width="1920.000000pt" height="1080.000000pt" viewBox="0 0 1920.000000 1080.000000"
 preserveAspectRatio="xMidYMid meet">

<g transform="translate(0.000000,1080.000000) scale(0.100000,-0.100000)"
fill="#000000" stroke="none">
<path d="M0 5400 l0 -5400 9600 0 9600 0 0 5400 0 5400 -9600 0 -9600 0 0
-5400z m4126 2147 c3 -8 0 -43 -6 -78 -6 -35 -18 -109 -26 -163 -8 -55 -19
-105 -25 -113 -9 -10 -71 -13 -290 -13 l-279 0 1 43 c0 23 4 65 9 92 5 28 15
88 21 135 7 54 17 90 27 98 24 18 561 17 568 -1z m-114 -776 c3 -3 2 -28 -3
-56 -5 -27 -15 -93 -23 -145 -34 -218 -66 -429 -91 -590 -9 -58 -22 -143 -30
-190 -8 -47 -23 -148 -35 -225 -11 -77 -25 -165 -31 -195 -5 -30 -14 -84 -19
-120 -41 -294 -70 -430 -106 -503 -8 -16 -14 -33 -14 -37 0 -5 -16 -36 -35
-69 -87 -148 -245 -272 -408 -318 -169 -48 -316 -58 -464 -33 -61 10 -84 19
-88 31 -5 15 6 72 51 265 8 33 14 72 14 86 0 35 27 61 54 54 55 -16 138 -18
183 -6 63 18 86 35 127 95 43 65 54 112 111 485 9 58 22 143 30 190 14 83 22
139 65 420 11 74 27 178 36 230 8 52 21 140 30 195 8 55 22 138 29 185 8 47
17 108 20 135 4 28 11 67 16 87 l10 38 262 2 c260 3 296 2 309 -11z m-1094
-327 c-3 -207 -5 -248 -18 -255 -8 -4 -130 -45 -270 -89 -140 -45 -271 -88
-290 -95 -34 -13 -271 -88 -317 -100 -24 -7 -31 -33 -10 -39 27 -7 134 -39
172 -52 22 -7 101 -32 175 -54 74 -23 146 -45 160 -50 14 -4 72 -22 130 -40
58 -18 141 -44 185 -59 l80 -27 3 -239 c1 -132 0 -245 -2 -252 -5 -12 -16 -9
-101 26 -11 5 -40 17 -65 26 -25 10 -58 23 -75 30 -16 7 -43 17 -60 23 -16 6
-70 26 -120 46 -49 19 -144 55 -210 81 -149 57 -194 75 -220 86 -11 5 -92 36
-179 69 -174 66 -280 107 -311 120 -11 4 -40 15 -65 25 -25 9 -60 24 -79 34
l-33 17 0 203 c1 177 3 206 18 222 9 11 21 19 27 19 5 0 23 6 40 14 18 7 52
21 77 31 25 9 54 21 65 26 61 26 156 62 195 76 25 8 59 21 75 28 17 7 50 20
75 30 25 9 54 21 65 26 11 5 45 18 75 29 30 11 64 25 75 30 11 5 84 34 163 64
407 160 456 179 512 204 63 27 61 37 58 -234z m1377 227 c28 -10 70 -26 95
-36 25 -10 108 -42 185 -72 214 -83 219 -85 240 -94 11 -5 74 -29 140 -54 66
-25 129 -49 140 -54 11 -5 40 -17 65 -26 25 -10 59 -23 75 -30 17 -7 44 -17
60 -23 43 -15 316 -122 340 -132 11 -5 37 -16 58 -24 20 -8 37 -19 37 -23 0
-4 1 -100 1 -212 1 -203 0 -205 -23 -223 -13 -9 -28 -18 -33 -18 -9 0 -49 -16
-180 -69 -11 -5 -40 -16 -65 -26 -25 -10 -54 -21 -65 -26 -25 -10 -160 -63
-245 -96 -74 -29 -205 -81 -235 -94 -11 -4 -74 -29 -140 -54 -66 -25 -129 -50
-140 -55 -19 -8 -53 -22 -255 -101 -47 -18 -91 -37 -98 -43 -28 -21 -32 13
-30 253 l3 243 50 18 c28 10 97 33 155 51 58 18 112 36 120 40 8 4 96 33 195
64 99 31 196 63 215 70 19 7 62 21 95 31 90 27 110 48 58 60 -16 3 -59 16 -98
29 -126 40 -227 72 -410 130 -99 31 -225 71 -280 89 l-100 32 -3 247 c-2 196
0 247 10 247 8 0 36 -8 63 -19z m3893 -169 c9 -6 12 -35 10 -108 l-3 -99 -157
-3 c-184 -3 -171 -12 -166 123 l3 80 145 5 c80 3 147 7 150 8 3 1 11 -2 18 -6z
m3117 -97 l0 -100 -160 0 -160 0 -3 89 c-2 49 0 96 2 103 5 11 38 13 163 11
l158 -3 0 -100z m1614 -94 c11 -7 14 -35 12 -134 -3 -147 -3 -147 104 -147
l66 0 -3 -102 -3 -103 -70 -3 c-38 -2 -75 -8 -82 -14 -20 -16 -18 -468 2 -507
18 -35 58 -53 115 -49 39 3 45 0 46 -17 1 -11 3 -60 5 -109 l4 -89 -50 -14
c-34 -10 -81 -14 -146 -11 -83 3 -104 8 -162 36 -68 34 -95 62 -131 137 -18
36 -20 68 -24 330 -3 205 -7 292 -15 297 -7 4 -37 8 -68 8 -67 0 -69 2 -69
105 0 103 1 105 69 105 31 0 62 5 69 12 8 8 12 54 12 139 0 93 3 129 13 132
22 9 292 7 306 -2z m3743 -273 c75 -22 165 -86 201 -143 50 -77 57 -120 57
-373 0 -245 11 -378 35 -437 26 -60 16 -65 -150 -65 -141 0 -144 0 -163 25
-11 14 -23 41 -26 60 -8 40 -33 57 -48 32 -38 -69 -141 -117 -251 -117 -216 0
-347 112 -347 296 0 81 30 144 95 202 76 67 184 95 430 111 l90 6 3 44 c7 92
-52 148 -145 138 -62 -6 -80 -18 -100 -65 l-13 -33 -153 3 -152 3 -3 27 c-7
60 18 110 87 178 66 64 73 68 216 118 42 15 279 8 337 -10z m1064 4 c107 -30
208 -109 244 -190 21 -48 26 -102 11 -117 -6 -6 -74 -9 -160 -7 l-149 3 -14
42 c-18 58 -65 81 -143 72 -67 -9 -105 -41 -105 -90 0 -54 41 -80 180 -110 99
-22 239 -65 271 -85 94 -56 131 -119 132 -223 0 -89 -22 -136 -90 -197 -91
-80 -190 -110 -368 -111 -183 -1 -280 33 -379 134 -52 53 -65 74 -80 125 -9
34 -14 67 -11 72 4 6 65 10 149 10 l143 0 24 -46 c32 -61 74 -84 157 -84 67 0
95 10 124 44 26 32 22 64 -13 97 -32 30 -66 42 -244 85 -178 43 -257 97 -298
202 -50 128 24 274 177 346 39 19 82 37 96 39 47 9 305 1 346 -11z m-5612 -12
c105 -23 217 -102 256 -180 23 -47 32 -116 15 -130 -8 -7 -66 -10 -160 -8
l-148 3 -13 38 c-21 60 -48 76 -124 76 -68 0 -95 -12 -119 -56 -17 -33 -13
-57 12 -80 35 -33 59 -42 181 -68 189 -41 276 -80 335 -152 40 -48 55 -102 48
-179 -10 -134 -138 -243 -322 -275 -98 -17 -275 -7 -349 20 -140 49 -248 169
-250 275 l-1 41 142 3 142 3 23 -48 c29 -59 88 -93 160 -93 83 0 137 38 138
97 0 52 -67 89 -212 118 -204 40 -315 106 -357 211 -7 18 -12 57 -12 89 0 121
99 242 236 288 30 10 298 26 324 20 8 -2 33 -8 55 -13z m1751 10 c3 -5 15 -10
26 -10 35 0 104 -37 155 -83 60 -54 111 -150 124 -232 12 -75 13 -252 1 -259
-4 -3 -137 -6 -294 -6 -314 -1 -315 -1 -302 -60 9 -41 72 -107 110 -115 17 -3
38 -10 47 -16 37 -19 112 -10 263 32 39 11 76 21 83 22 8 1 24 -24 38 -58 14
-33 30 -70 35 -81 21 -42 9 -55 -92 -104 -15 -8 -79 -24 -199 -50 -59 -13
-187 -9 -276 8 -147 29 -281 148 -336 300 -18 48 -21 80 -21 197 0 121 3 149
23 205 29 83 75 154 132 207 92 84 178 112 350 112 74 1 129 -3 133 -9z m773
-52 c2 -32 8 -58 13 -58 6 0 31 18 57 39 76 64 127 81 245 81 135 -1 195 -29
259 -123 l18 -26 52 52 c79 78 112 91 244 95 97 3 116 1 157 -18 90 -42 142
-113 172 -234 13 -50 15 -125 13 -411 l-3 -350 -154 -3 c-85 -1 -158 1 -163 6
-4 4 -9 161 -11 348 -2 316 -3 342 -21 369 -30 46 -46 54 -109 55 -66 0 -133
-34 -142 -73 -3 -12 -4 -174 -3 -360 3 -331 3 -338 -17 -343 -11 -3 -85 -3
-165 -2 l-145 3 -5 340 c-5 357 -8 378 -53 416 -42 35 -157 19 -200 -28 -15
-17 -17 -55 -19 -374 l-3 -354 -167 -3 -168 -2 0 510 0 511 158 -3 157 -3 3
-57z m-4133 42 c3 -5 17 -10 31 -10 74 0 207 -97 250 -182 25 -49 32 -112 14
-123 -8 -5 -176 -8 -295 -5 -8 0 -19 17 -26 40 -19 61 -72 88 -153 76 -110
-17 -131 -133 -31 -170 38 -14 130 -37 185 -47 98 -16 204 -62 258 -113 54
-50 72 -95 72 -180 0 -91 -21 -137 -88 -197 -90 -79 -190 -109 -367 -110 -182
-2 -280 33 -379 134 -52 53 -65 74 -80 125 -9 34 -14 67 -11 72 4 6 66 10 150
10 l143 0 23 -47 c30 -60 72 -83 150 -83 78 0 113 15 135 56 17 31 17 37 4 61
-22 38 -73 61 -227 98 -215 53 -293 102 -336 213 -45 114 11 247 137 326 28
18 71 38 96 45 25 8 50 15 55 16 27 9 285 4 290 -5z m-3096 -11 c118 -38 173
-75 222 -150 20 -30 41 -79 47 -109 7 -32 13 -177 15 -340 3 -234 7 -293 21
-329 9 -24 16 -54 16 -67 l0 -24 -155 0 c-149 0 -155 1 -169 23 -8 12 -17 37
-21 55 -10 46 -32 52 -61 14 -58 -74 -139 -100 -281 -90 -84 5 -112 11 -152
33 -104 57 -151 136 -151 256 0 54 5 80 24 117 63 124 188 176 456 190 l135 7
3 29 c6 50 -8 94 -39 126 -28 27 -37 30 -93 30 -66 0 -91 -15 -120 -70 -10
-21 -18 -22 -148 -21 -76 0 -144 1 -152 1 -47 1 -15 118 53 194 43 47 120 94
191 115 25 7 50 15 55 16 28 9 273 3 304 -6z m3896 -494 l0 -500 -160 0 -160
0 -3 489 c-1 358 1 492 9 503 9 11 44 13 163 11 l151 -3 0 -500z m-3106 481
c9 -11 11 -154 9 -568 -3 -620 0 -588 -80 -694 -44 -59 -122 -105 -206 -123
-68 -14 -200 -14 -241 0 l-32 11 6 92 c10 145 6 139 70 131 45 -6 60 -4 89 14
66 41 66 41 66 617 0 283 2 519 5 524 4 6 70 10 154 10 116 0 151 -3 160 -14z
m447 -16 c7 -14 25 -77 39 -140 25 -110 59 -255 91 -385 7 -33 15 -73 16 -90
5 -50 22 -30 40 47 9 40 24 105 33 143 9 39 22 97 30 130 8 33 26 110 40 170
40 173 16 156 212 153 143 -3 168 -5 166 -18 -1 -8 -18 -60 -37 -115 -63 -178
-196 -568 -222 -650 -14 -44 -32 -94 -40 -112 -8 -17 -14 -36 -14 -42 0 -14
-22 -54 -35 -63 -5 -4 -77 -8 -160 -8 -82 0 -155 4 -161 8 -6 4 -26 52 -44
107 -18 55 -38 114 -46 130 -7 17 -22 59 -33 95 -11 36 -57 171 -102 300 -45
129 -87 254 -93 277 -6 23 -15 45 -19 49 -4 4 -7 16 -7 26 0 17 10 18 167 16
l167 -3 12 -25z"/>
<path d="M16379 5448 c-50 -22 -72 -58 -71 -114 0 -54 17 -76 71 -94 52 -17
118 2 172 48 38 33 39 35 39 102 0 60 -3 69 -20 75 -35 11 -152 1 -191 -17z"/>
<path d="M13643 5789 c-37 -24 -73 -91 -73 -137 l0 -33 143 3 142 3 -4 50 c-4
63 -23 100 -61 120 -41 21 -109 19 -147 -6z"/>
<path d="M7143 5422 c-46 -24 -66 -58 -67 -109 -1 -38 4 -49 32 -74 23 -21 43
-29 68 -29 57 0 114 21 151 56 33 31 34 34 31 101 l-3 68 -90 2 c-70 2 -97 -1
-122 -15z"/>
</g>
</svg>
